{"title":"The Sex Monster 1999 iNTERNAL DVDRip XviD [avrumi]","uid":7197476,"size":742380594,"categoryP":"video","categoryS":"movies","magnet":"?xt=urn:btih:4d4e2a4d9ac75de4fd54c4af7cd944a26bf83629&amp;dn=The+Sex+Monster+1999+iNTERNAL+DVDRip+XviD+%5Bavrumi%5D&amp;tr=udp%3A%2F%2Ftracker.openbittorrent.com%3A80&amp;tr=udp%3A%2F%2Fopen.demonii.com%3A1337&amp;tr=udp%3A%2F%2Ftracker.coppersurfer.tk%3A6969&amp;tr=udp%3A%2F%2Fexodus.desync.com%3A6969","seeders":1,"leechers":0,"uploader":"avrumi","files":-1,"time":1334832453,"description":" &lt;a href=&quot;http://img3.dishonline.com/dish/dyn/cr/640/360/60/dd/60dda45d6e9c3fd132f15f638d276b29.jpg&quot; rel=&quot;nofollow&quot; target=&quot;_NEW&quot;&gt;http://img3.dishonline.com/dish/dyn/cr/640/360/60/dd/60dda45d6e9c3fd132f15f638d276b29.jpg&lt;/a&gt;\n\nThe.Sex.Monster.1999.iNTERNAL.DVDRip.XviD\n\n[plot]\n\nA neurotic L.A. building contractor pushes his wife into entering into a three way sexual\nrelationship. Unfortunately for him, his wife gets more out of it than he does and becomes a\ntigress seducing every female she meets including the contractor's secretary\n\n[cast]\n\nMariel Hemingway ... Laura Barnes\nMike Binder ... Marty Barnes\nRen e Humphrey ... Didi\nTaylor Nichols ... Billy\nMelissa Lahlitah Crider ... Diva (as Missy Crider)\nChristopher Lawford ... Dave Pembroke\nJoanna Heimbold ... Evie Pembroke\nKevin Pollak ... Dr. Jerry Berman\nStephen Baldwin ... Murphy\nAnita Barone ... Carol\nKara Zediker ... Ellen\nMarisol Nichols ... Lucia\nHolland Taylor ... Muriel\nMelissa Denton ... Salon Customer\nNoah Stone ... Danny\n\n &lt;a href=&quot;\nhttp://www.imdb.com/title/tt0159730/&quot; rel=&quot;nofollow&quot; target=&quot;_NEW&quot;&gt;\nhttp://www.imdb.com/title/tt0159730/&lt;/a&gt;\n\nGenres: Comedy\nSubtitles: None\nDate: 2012.04\nDirector: Mike Binder\n\nStats:\nFormat: AVI\nFormat/Info: Audio Video Interleave\nFile size: 701 MiB\nDuration: 1h 33mn\nOverall bit rate mode: Variable\nOverall bit rate: 1 050 Kbps\n\nVideo\nID: 0\nFormat: MPEG-4 Visual\nFormat profile: Advanced Simple@L5\nFormat settings, BVOP: 2\nFormat settings, QPel: No\nFormat settings, GMC: No warppoints\nFormat settings, Matrix: Default (H.263)\nCodec ID: XVID\nCodec ID/Hint: XviD\nDuration: 1h 33mn\nBit rate: 914 Kbps\nWidth: 624 pixels\nHeight: 336 pixels\nDisplay aspect ratio: 1.857\nFrame rate: 25.000 fps\nColor space: YUV\nChroma subsampling: 4:2:0\nBit depth: 8 bits\nScan type: Progressive\nCompression mode: Lossy\nBits/(Pixel*Frame): 0.174\nStream size: 610 MiB (87%)\nWriting library: XviD 64\n\nAudio\nID: 1\nFormat: MPEG Audio\nFormat version: Version 1\nFormat profile: Layer 3\nMode: Joint stereo\nMode extension: MS Stereo\nCodec ID: 55\nCodec ID/Hint: MP3\nDuration: 1h 33mn\nBit rate mode: Variable\nBit rate: 123 Kbps\nChannel(s): 2 channels\nSampling rate: 48.0 KHz\nCompression mode: Lossy\nStream size: 82.3 MiB (12%)\nAlignment: Aligned on interleaves\nInterleave, duration: 24 ms (0.60 video frame)\nInterleave, preload duration: 146 ms\n\n\n[trailer]\n\nTake out all the dots [.] and space  \n\nvideo: you + tube\n./w.a.t.c..c.h.?.v.=.\na6ImDMA2yzI\n\n\n...http://www .... y.o.u. .t.u.b.e. ./w.a.t.c..c.h.?.v.=.. . a6ImDMA2yzI]","torrent":{"xt":"urn:btih:4d4e2a4d9ac75de4fd54c4af7cd944a26bf83629","amp;dn":"The+Sex+Monster+1999+iNTERNAL+DVDRip+XviD+%5Bavrumi%5D","amp;tr":["udp%3A%2F%2Ftracker.openbittorrent.com%3A80","udp%3A%2F%2Fopen.demonii.com%3A1337","udp%3A%2F%2Ftracker.coppersurfer.tk%3A6969","udp%3A%2F%2Fexodus.desync.com%3A6969"],"infoHash":"4d4e2a4d9ac75de4fd54c4af7cd944a26bf83629","infoHashBuffer":{"type":"Buffer","data":[77,78,42,77,154,199,93,228,253,84,196,175,124,217,68,162,107,248,54,41]},"announce":[],"urlList":[]}}